<?xml version="1.0" encoding="utf-8"?>
<!-- Generator: Adobe Illustrator 19.0.0, SVG Export Plug-In . SVG Version: 6.00 Build 0)  -->
<svg version="1.1" id="Camada_1" xmlns="http://www.w3.org/2000/svg" xmlns:xlink="http://www.w3.org/1999/xlink" x="0px" y="0px"
	 viewBox="0 0 17.3 23.4" style="enable-background:new 0 0 17.3 23.4;" xml:space="preserve">
<style type="text/css">
	.st0{fill:#F00;}
</style>
<g>
	<path class="st0" d="M8.6,3.5c-2.8,0-5.1,2.3-5.1,5.1c0,2.8,2.3,5.1,5.1,5.1c2.8,0,5.1-2.3,5.1-5.1C13.7,5.8,11.4,3.5,8.6,3.5
		L8.6,3.5z M8.6,12.4c-2.1,0-3.7-1.7-3.7-3.7c0-2.1,1.7-3.7,3.7-3.7c2.1,0,3.7,1.7,3.7,3.7C12.4,10.7,10.7,12.4,8.6,12.4L8.6,12.4z
		 M8.6,12.4"/>
	<path class="st0" d="M8.6,0C3.9,0,0,3.9,0,8.6c0,2.7,2.3,6.8,3.7,9c0.9,1.4,1.9,2.8,2.7,3.9c1.4,1.7,1.9,1.8,2.2,1.8
		c0.4,0,0.8-0.1,2.2-1.8c0.9-1.1,1.8-2.4,2.7-3.9c1.4-2.2,3.7-6.3,3.7-9C17.3,3.9,13.4,0,8.6,0L8.6,0z M12.6,16.6
		c-1.8,2.9-3.4,4.8-4,5.3c-0.6-0.5-2.2-2.4-4-5.3c-2.1-3.4-3.3-6.3-3.3-8c0-4,3.3-7.3,7.3-7.3c4,0,7.3,3.3,7.3,7.3
		C15.9,10.3,14.7,13.2,12.6,16.6L12.6,16.6z M12.6,16.6"/>
</g>
</svg>
