<?xml version="1.0" encoding="utf-8"?>
<!-- Generator: Adobe Illustrator 19.0.0, SVG Export Plug-In . SVG Version: 6.00 Build 0)  -->
<svg version="1.1" id="Camada_1" xmlns="http://www.w3.org/2000/svg" xmlns:xlink="http://www.w3.org/1999/xlink" x="0px" y="0px"
	 viewBox="0 0 18.2 13.7" style="enable-background:new 0 0 18.2 13.7;" xml:space="preserve">
<style type="text/css">
	.st0{fill:#F00;}
</style>
<path class="st0" d="M16.4,0H1.8C0.8,0,0,0.8,0,1.8v10.1c0,1,0.8,1.8,1.8,1.8h14.6c1,0,1.8-0.8,1.8-1.8V1.8C18.2,0.8,17.4,0,16.4,0z
	 M15.1,1.3L9.7,6.5c-0.3,0.3-0.9,0.3-1.2,0L3.1,1.3H15.1z M10.6,7.5l0.7-0.6l5.6,3.7v1.4c0,0.3-0.2,0.5-0.5,0.5H1.8
	c-0.3,0-0.5-0.2-0.5-0.5v-1.4l5.5-3.7l0.7,0.7c0.4,0.4,1,0.6,1.5,0.6C9.7,8.1,10.2,7.9,10.6,7.5z M12.3,5.9l4.5-4.3
	c0,0.1,0.1,0.2,0.1,0.2v7.1L12.3,5.9z M1.3,8.9V1.8c0-0.1,0-0.2,0.1-0.2l4.5,4.3L1.3,8.9z"/>
</svg>
