<?xml version="1.0" encoding="utf-8"?>
<!-- Generator: Adobe Illustrator 19.0.0, SVG Export Plug-In . SVG Version: 6.00 Build 0)  -->
<svg version="1.1" id="Camada_1" xmlns="http://www.w3.org/2000/svg" xmlns:xlink="http://www.w3.org/1999/xlink" x="0px" y="0px"
	 viewBox="0 0 20.5 20.4" style="enable-background:new 0 0 20.5 20.4;" xml:space="preserve">
<style type="text/css">
	.st0{fill:#F00;}
</style>
<path class="st0" d="M19.9,15.2L17,12.3c-0.4-0.4-1-0.6-1.6-0.6c-0.6,0-1.2,0.2-1.6,0.7l-1.1,1.1c-0.8-0.4-2-1.1-3.2-2.3
	C8.3,9.9,7.7,8.8,7.1,7.9l1.1-1.1c0.9-0.9,0.9-2.3,0-3.2L5.3,0.6C4.9,0.2,4.4,0,3.8,0C3.2,0,2.6,0.2,2.2,0.6C1.9,0.9,0.6,2,0.2,4.3
	C-0.5,7.6,1,10.7,5.4,15.1c4.9,4.9,9.1,5.3,10.3,5.3c0.3,0,0.4,0,0.4,0c2.3-0.3,3.2-1.3,3.8-2.1C20.7,17.3,20.7,16,19.9,15.2z
	 M3.1,1.8L3.1,1.8c0.2-0.2,0.5-0.3,0.7-0.3c0.2,0,0.4,0.1,0.5,0.2l2.9,2.9c0.1,0.1,0.2,0.3,0.2,0.5c0,0.2-0.1,0.4-0.3,0.6L5.9,7l0,0
	C5.5,7.5,5.5,8,5.7,8.4c0.5,1,1.3,2.3,2.7,3.7c1.4,1.4,2.7,2.2,3.7,2.7c0.1,0.1,0.3,0.2,0.6,0.2c0.3,0,0.6-0.1,0.8-0.4l1.2-1.2
	c0.3-0.3,0.8-0.3,1.1,0l2.9,2.9c0.3,0.3,0.2,0.8-0.1,1.2c-0.5,0.7-1.1,1.3-2.8,1.5c0,0-0.1,0-0.3,0c-1,0-4.7-0.4-9.3-4.9
	c-4-4-5.4-6.8-4.9-9.5C2,2.6,3,1.8,3.1,1.8z"/>
<path class="st0" d="M12.4,3.3c1.1,0.1,2.3,0.8,3.2,1.6c0.9,0.9,1.5,2.1,1.6,3.2c0,0.4,0.4,0.7,0.7,0.7c0,0,0.1,0,0.1,0
	c0.4,0,0.7-0.4,0.6-0.8c-0.2-1.4-0.9-3-2.1-4.1C15.5,2.8,14,2,12.6,1.8c-0.4,0-0.8,0.2-0.8,0.6c0,0.2,0,0.4,0.2,0.5
	C12,3.2,12.2,3.3,12.4,3.3z"/>
<path class="st0" d="M11.8,5.9c0.6,0.1,1.4,0.5,1.9,1c0.5,0.5,0.9,1.3,1,1.9c0,0.4,0.4,0.7,0.7,0.7c0,0,0.1,0,0.1,0
	c0.2,0,0.4-0.1,0.5-0.3c0.1-0.2,0.2-0.3,0.2-0.5c-0.1-1-0.8-2.1-1.4-2.8C14.1,5.3,13,4.6,12,4.5c-0.4,0-0.8,0.2-0.8,0.6
	c0,0.2,0,0.4,0.2,0.5C11.4,5.8,11.6,5.9,11.8,5.9z"/>
</svg>
